<?xml version="1.0" encoding="UTF-8" standalone="no"?>
<!DOCTYPE svg PUBLIC "-//W3C//DTD SVG 1.1//EN" "http://www.w3.org/Graphics/SVG/1.1/DTD/svg11.dtd">
<svg xmlns="http://www.w3.org/2000/svg" version="1.1" viewBox="0 0 845 845">
<g strokeWidth="2.00" fill="none" strokeLinecap="butt">
<path stroke="#eeac84" vector-effect="non-scaling-stroke" d="
  M 427.59 33.96
  Q 393.87 55.69 372.56 70.06
  Q 290.18 125.64 197.09 191.36
  Q 194.27 193.36 190.00 193.00
  Q 186.13 192.68 171.68 193.17
  A 0.55 0.54 -89.4 0 0 171.16 193.69
  Q 170.65 204.71 171.00 207.00
  Q 171.38 209.44 168.94 211.19
  Q 91.36 266.63 57.81 290.31
  Q 57.30 290.67 56.29 290.50"
/>
<path stroke="#e7aa83" vector-effect="non-scaling-stroke" d="
  M 324.53 45.91
  Q 323.07 47.30 321.19 48.68
  Q 305.14 60.45 288.85 71.86
  Q 233.76 110.44 182.69 154.19
  Q 174.13 161.52 140.20 192.32
  A 0.34 0.27 -42.4 0 0 140.13 192.75
  Q 140.28 192.90 140.50 192.75
  Q 166.33 174.87 207.27 145.96
  Q 214.85 140.60 223.42 134.17
  Q 253.83 111.35 284.85 89.37
  Q 299.47 79.01 313.90 68.40
  Q 323.11 61.64 329.88 56.94
  Q 343.12 47.75 346.19 45.94
  Q 350.89 43.16 353.30 39.77"
/>
<path stroke="#eeac84" vector-effect="non-scaling-stroke" d="
  M 436.20 34.47
  Q 333.25 112.03 231.39 191.90
  Q 229.98 193.00 231.77 193.00
  Q 260.12 193.00 288.01 193.00
  Q 288.05 193.00 289.48 193.08
  Q 292.29 193.22 294.94 191.19
  Q 346.49 151.63 358.69 142.19
  Q 414.18 99.23 469.44 61.69
  Q 490.72 47.23 498.60 41.16"
/>
<path stroke="#ffdf80" vector-effect="non-scaling-stroke" d="
  M 505.29 42.75
  Q 505.31 43.42 504.69 43.94
  Q 484.26 60.98 470.76 71.75
  Q 448.96 89.15 427.96 107.50"
/>
<path stroke="#eeac84" vector-effect="non-scaling-stroke" d="
  M 427.96 107.50
  L 321.83 192.02
  Q 320.60 193.00 322.18 193.00
  L 372.11 193.00
  Q 373.70 193.00 374.96 192.03
  Q 410.93 164.57 448.06 137.56
  Q 451.94 134.74 468.54 123.75"
/>
<path stroke="#ffdf80" vector-effect="non-scaling-stroke" d="
  M 468.54 123.75
  Q 469.20 123.69 469.77 123.40
  Q 470.63 122.97 470.92 122.93
  Q 472.55 122.70 472.68 124.44
  A 1.09 0.97 -25.9 0 1 472.33 125.28
  Q 470.10 127.42 463.81 132.81
  Q 429.48 162.24 394.64 191.92
  Q 393.38 193.00 395.04 193.00
  L 670.66 193.00
  A 1.34 1.34 0.4 0 1 672.00 194.34
  L 672.00 385.65
  Q 672.00 387.43 673.33 386.24
  Q 729.37 335.90 785.89 287.31"
/>
<path stroke="#eeac84" vector-effect="non-scaling-stroke" d="
  M 792.04 305.75
  Q 732.30 359.49 672.85 414.98
  A 2.66 2.66 -21.5 0 0 672.00 416.93
  Q 672.02 510.16 671.54 604.01
  Q 671.54 604.13 671.58 617.98
  Q 671.62 633.50 670.56 648.44
  A 1.68 1.68 2.0 0 1 668.88 650.00
  L 417.55 650.06
  A 1.30 1.25 -65.5 0 0 416.69 650.40
  Q 348.80 710.75 279.52 769.51
  Q 274.50 773.77 269.01 779.22"
/>
<path stroke="#eeac84" vector-effect="non-scaling-stroke" d="
  M 242.75 766.46
  Q 248.45 760.91 251.56 758.31
  Q 315.35 705.08 377.93 650.44
  Q 378.44 650.00 377.76 650.00
  L 173.14 650.00
  A 1.17 1.17 -2.4 0 1 171.97 648.93
  Q 171.04 637.90 171.04 626.50
  Q 171.00 502.50 171.00 377.50
  Q 171.00 376.15 169.90 376.92
  Q 165.91 379.73 161.57 383.29
  Q 100.52 433.49 38.73 482.83"
/>
<path stroke="#eeac84" vector-effect="non-scaling-stroke" d="
  M 35.55 453.81
  Q 104.67 404.33 170.46 350.87
  A 1.47 1.45 -19.8 0 0 171.00 349.74
  L 171.00 312.24
  Q 171.00 311.28 170.24 311.87
  Q 101.09 365.76 33.75 422.04"
/>
<path stroke="#eeac84" vector-effect="non-scaling-stroke" d="
  M 34.96 391.70
  Q 102.94 340.83 170.15 288.19
  A 2.23 2.23 -19.2 0 0 171.00 286.44
  L 171.00 239.50
  Q 171.00 238.38 170.11 239.06
  Q 118.11 278.56 66.56 318.31
  Q 51.79 329.71 43.79 334.75"
/>
<path stroke="#ee8c05" vector-effect="non-scaling-stroke" d="
  M 468.54 123.75
  Q 461.52 115.87 452.99 108.56
  A 2.14 2.12 58.5 0 0 451.13 108.10
  Q 436.58 111.47 423.83 117.85
  Q 423.28 118.13 422.86 117.86
  A 0.64 0.51 -58.2 0 1 422.76 117.06
  Q 425.21 112.99 427.69 108.94
  Q 428.17 108.15 427.96 107.50"
/>
<path stroke="#eeac84" vector-effect="non-scaling-stroke" d="
  M 304.08 246.19
  L 223.03 246.00
  A 1.03 1.03 -45.0 0 0 222.00 247.03
  L 222.00 309.52
  Q 222.00 310.78 222.99 310.01
  L 304.23 246.63
  Q 304.79 246.19 304.08 246.19"
/>
<path stroke="#ffdf80" vector-effect="non-scaling-stroke" d="
  M 416.84 374.78
  Q 478.79 439.43 542.52 503.14
  A 0.86 0.85 46.2 0 0 543.70 503.17
  L 620.37 434.05
  A 1.92 1.91 68.9 0 0 621.00 432.63
  L 621.00 246.93
  A 0.93 0.93 90.0 0 0 620.07 246.00
  L 330.79 246.00
  A 3.16 3.13 25.4 0 0 328.82 246.69
  Q 319.51 254.08 311.22 262.15
  Q 309.88 263.45 311.16 264.80
  Q 356.42 312.91 402.93 360.42
  Q 410.02 367.66 416.84 374.78"
/>
<path stroke="#eeac84" vector-effect="non-scaling-stroke" d="
  M 298.39 284.61
  Q 295.36 281.64 292.62 279.10
  A 1.12 1.11 48.1 0 0 291.20 279.02
  Q 274.71 291.38 259.13 304.11
  Q 241.17 318.79 222.65 333.87
  A 1.79 1.76 70.7 0 0 222.00 335.25
  L 222.00 602.72
  A 1.28 1.28 0.2 0 0 223.28 604.00
  L 430.25 604.00
  A 1.31 1.30 23.9 0 0 431.12 603.67
  Q 475.01 564.30 518.85 524.86
  Q 522.08 521.96 524.75 519.36
  A 1.21 1.20 45.8 0 0 524.77 517.65
  Q 441.68 432.31 359.42 346.34
  Q 329.41 314.98 298.39 284.61"
/>
<path stroke="#eeac84" vector-effect="non-scaling-stroke" d="
  M 620.41 463.78
  Q 604.34 477.71 589.18 492.03
  Q 576.10 504.38 574.62 505.76
  Q 522.61 554.19 469.38 602.92
  Q 468.20 604.00 469.80 604.00
  L 620.31 604.00
  A 0.69 0.69 45.0 0 0 621.00 603.31
  L 621.00 464.05
  Q 621.00 463.27 620.41 463.78"
/>
</g>
<g fill="#dd5909">
<path d="
  M 427.59 33.96
  Q 393.87 55.69 372.56 70.06
  Q 290.18 125.64 197.09 191.36
  Q 194.27 193.36 190.00 193.00
  Q 186.13 192.68 171.68 193.17
  A 0.55 0.54 -89.4 0 0 171.16 193.69
  Q 170.65 204.71 171.00 207.00
  Q 171.38 209.44 168.94 211.19
  Q 91.36 266.63 57.81 290.31
  Q 57.30 290.67 56.29 290.50
  Q 60.34 280.55 64.53 270.66
  Q 87.47 216.63 125.15 171.65
  Q 128.82 167.27 133.49 163.96
  Q 200.09 116.64 266.94 69.69
  Q 278.24 61.75 286.81 58.07
  Q 301.46 51.78 316.90 47.78
  Q 320.76 46.77 324.53 45.91
  Q 323.07 47.30 321.19 48.68
  Q 305.14 60.45 288.85 71.86
  Q 233.76 110.44 182.69 154.19
  Q 174.13 161.52 140.20 192.32
  A 0.34 0.27 -42.4 0 0 140.13 192.75
  Q 140.28 192.90 140.50 192.75
  Q 166.33 174.87 207.27 145.96
  Q 214.85 140.60 223.42 134.17
  Q 253.83 111.35 284.85 89.37
  Q 299.47 79.01 313.90 68.40
  Q 323.11 61.64 329.88 56.94
  Q 343.12 47.75 346.19 45.94
  Q 350.89 43.16 353.30 39.77
  Q 390.10 33.87 427.59 33.96
  Z"
/>
<path d="
  M 436.20 34.47
  Q 467.29 35.30 498.60 41.16
  Q 490.72 47.23 469.44 61.69
  Q 414.18 99.23 358.69 142.19
  Q 346.49 151.63 294.94 191.19
  Q 292.29 193.22 289.48 193.08
  Q 288.05 193.00 288.01 193.00
  Q 260.12 193.00 231.77 193.00
  Q 229.98 193.00 231.39 191.90
  Q 333.25 112.03 436.20 34.47
  Z"
/>
<path d="
  M 427.96 107.50
  Q 428.17 108.15 427.69 108.94
  Q 425.21 112.99 422.76 117.06
  A 0.64 0.51 -58.2 0 0 422.86 117.86
  Q 423.28 118.13 423.83 117.85
  Q 436.58 111.47 451.13 108.10
  A 2.14 2.12 58.5 0 1 452.99 108.56
  Q 461.52 115.87 468.54 123.75
  Q 451.94 134.74 448.06 137.56
  Q 410.93 164.57 374.96 192.03
  Q 373.70 193.00 372.11 193.00
  L 322.18 193.00
  Q 320.60 193.00 321.83 192.02
  L 427.96 107.50
  Z"
/>
<path d="
  M 34.96 391.70
  Q 34.90 388.13 36.25 377.25
  Q 39.38 352.07 43.79 334.75
  Q 51.79 329.71 66.56 318.31
  Q 118.11 278.56 170.11 239.06
  Q 171.00 238.38 171.00 239.50
  L 171.00 286.44
  A 2.23 2.23 -19.2 0 1 170.15 288.19
  Q 102.94 340.83 34.96 391.70
  Z"
/>
<path d="
  M 304.08 246.19
  Q 304.79 246.19 304.23 246.63
  L 222.99 310.01
  Q 222.00 310.78 222.00 309.52
  L 222.00 247.03
  A 1.03 1.03 45.0 0 1 223.03 246.00
  L 304.08 246.19
  Z"
/>
<path d="
  M 298.39 284.61
  Q 329.41 314.98 359.42 346.34
  Q 441.68 432.31 524.77 517.65
  A 1.21 1.20 45.8 0 1 524.75 519.36
  Q 522.08 521.96 518.85 524.86
  Q 475.01 564.30 431.12 603.67
  A 1.31 1.30 23.9 0 1 430.25 604.00
  L 223.28 604.00
  A 1.28 1.28 -0.2 0 1 222.00 602.72
  L 222.00 335.25
  A 1.79 1.76 70.7 0 1 222.65 333.87
  Q 241.17 318.79 259.13 304.11
  Q 274.71 291.38 291.20 279.02
  A 1.12 1.11 48.1 0 1 292.62 279.10
  Q 295.36 281.64 298.39 284.61
  Z"
/>
<path d="
  M 792.04 305.75
  Q 794.10 307.19 794.61 309.56
  Q 794.99 311.34 795.02 311.42
  Q 812.76 372.74 810.50 434.25
  Q 807.33 520.62 767.81 599.56
  Q 759.91 615.35 748.95 625.70
  Q 720.03 653.02 692.04 681.29
  Q 659.45 714.20 626.34 746.59
  Q 617.53 755.22 611.25 760.75
  Q 607.24 764.29 601.66 767.13
  Q 565.29 785.70 526.08 796.82
  Q 516.64 799.50 506.67 801.60
  Q 463.24 810.74 422.00 810.75
  Q 405.20 810.75 381.47 808.85
  Q 370.71 807.99 361.62 806.47
  Q 313.73 798.48 269.01 779.22
  Q 274.50 773.77 279.52 769.51
  Q 348.80 710.75 416.69 650.40
  A 1.30 1.25 -65.5 0 1 417.55 650.06
  L 668.88 650.00
  A 1.68 1.68 2.0 0 0 670.56 648.44
  Q 671.62 633.50 671.58 617.98
  Q 671.54 604.13 671.54 604.01
  Q 672.02 510.16 672.00 416.93
  A 2.66 2.66 -21.5 0 1 672.85 414.98
  Q 732.30 359.49 792.04 305.75
  Z"
/>
<path d="
  M 35.55 453.81
  Q 34.77 451.91 34.71 450.75
  Q 33.93 436.41 33.75 422.04
  Q 101.09 365.76 170.24 311.87
  Q 171.00 311.28 171.00 312.24
  L 171.00 349.74
  A 1.47 1.45 -19.8 0 1 170.46 350.87
  Q 104.67 404.33 35.55 453.81
  Z"
/>
<path d="
  M 242.75 766.46
  Q 148.24 717.25 91.87 626.91
  Q 53.56 565.52 40.43 494.26
  Q 39.24 487.78 38.73 482.83
  Q 100.52 433.49 161.57 383.29
  Q 165.91 379.73 169.90 376.92
  Q 171.00 376.15 171.00 377.50
  Q 171.00 502.50 171.04 626.50
  Q 171.04 637.90 171.97 648.93
  A 1.17 1.17 -2.4 0 0 173.14 650.00
  L 377.76 650.00
  Q 378.44 650.00 377.93 650.44
  Q 315.35 705.08 251.56 758.31
  Q 248.45 760.91 242.75 766.46
  Z"
/>
<path d="
  M 620.41 463.78
  Q 621.00 463.27 621.00 464.05
  L 621.00 603.31
  A 0.69 0.69 -45.0 0 1 620.31 604.00
  L 469.80 604.00
  Q 468.20 604.00 469.38 602.92
  Q 522.61 554.19 574.62 505.76
  Q 576.10 504.38 589.18 492.03
  Q 604.34 477.71 620.41 463.78
  Z"
/>
</g>
<path fill="#ffffff" d="
  M 427.59 33.96
  L 436.20 34.47
  Q 333.25 112.03 231.39 191.90
  Q 229.98 193.00 231.77 193.00
  Q 260.12 193.00 288.01 193.00
  Q 288.05 193.00 289.48 193.08
  Q 292.29 193.22 294.94 191.19
  Q 346.49 151.63 358.69 142.19
  Q 414.18 99.23 469.44 61.69
  Q 490.72 47.23 498.60 41.16
  L 505.29 42.75
  Q 505.31 43.42 504.69 43.94
  Q 484.26 60.98 470.76 71.75
  Q 448.96 89.15 427.96 107.50
  L 321.83 192.02
  Q 320.60 193.00 322.18 193.00
  L 372.11 193.00
  Q 373.70 193.00 374.96 192.03
  Q 410.93 164.57 448.06 137.56
  Q 451.94 134.74 468.54 123.75
  Q 469.20 123.69 469.77 123.40
  Q 470.63 122.97 470.92 122.93
  Q 472.55 122.70 472.68 124.44
  A 1.09 0.97 -25.9 0 1 472.33 125.28
  Q 470.10 127.42 463.81 132.81
  Q 429.48 162.24 394.64 191.92
  Q 393.38 193.00 395.04 193.00
  L 670.66 193.00
  A 1.34 1.34 0.4 0 1 672.00 194.34
  L 672.00 385.65
  Q 672.00 387.43 673.33 386.24
  Q 729.37 335.90 785.89 287.31
  L 792.04 305.75
  Q 732.30 359.49 672.85 414.98
  A 2.66 2.66 -21.5 0 0 672.00 416.93
  Q 672.02 510.16 671.54 604.01
  Q 671.54 604.13 671.58 617.98
  Q 671.62 633.50 670.56 648.44
  A 1.68 1.68 2.0 0 1 668.88 650.00
  L 417.55 650.06
  A 1.30 1.25 -65.5 0 0 416.69 650.40
  Q 348.80 710.75 279.52 769.51
  Q 274.50 773.77 269.01 779.22
  Q 256.22 772.06 242.75 766.46
  Q 248.45 760.91 251.56 758.31
  Q 315.35 705.08 377.93 650.44
  Q 378.44 650.00 377.76 650.00
  L 173.14 650.00
  A 1.17 1.17 -2.4 0 1 171.97 648.93
  Q 171.04 637.90 171.04 626.50
  Q 171.00 502.50 171.00 377.50
  Q 171.00 376.15 169.90 376.92
  Q 165.91 379.73 161.57 383.29
  Q 100.52 433.49 38.73 482.83
  L 35.55 453.81
  Q 104.67 404.33 170.46 350.87
  A 1.47 1.45 -19.8 0 0 171.00 349.74
  L 171.00 312.24
  Q 171.00 311.28 170.24 311.87
  Q 101.09 365.76 33.75 422.04
  L 34.96 391.70
  Q 102.94 340.83 170.15 288.19
  A 2.23 2.23 -19.2 0 0 171.00 286.44
  L 171.00 239.50
  Q 171.00 238.38 170.11 239.06
  Q 118.11 278.56 66.56 318.31
  Q 51.79 329.71 43.79 334.75
  Q 49.38 312.78 55.81 293.81
  Q 56.43 291.99 56.29 290.50
  Q 57.30 290.67 57.81 290.31
  Q 91.36 266.63 168.94 211.19
  Q 171.38 209.44 171.00 207.00
  Q 170.65 204.71 171.16 193.69
  A 0.55 0.54 -89.4 0 1 171.68 193.17
  Q 186.13 192.68 190.00 193.00
  Q 194.27 193.36 197.09 191.36
  Q 290.18 125.64 372.56 70.06
  Q 393.87 55.69 427.59 33.96
  Z
  M 304.08 246.19
  L 223.03 246.00
  A 1.03 1.03 -45.0 0 0 222.00 247.03
  L 222.00 309.52
  Q 222.00 310.78 222.99 310.01
  L 304.23 246.63
  Q 304.79 246.19 304.08 246.19
  Z
  M 416.84 374.78
  Q 478.79 439.43 542.52 503.14
  A 0.86 0.85 46.2 0 0 543.70 503.17
  L 620.37 434.05
  A 1.92 1.91 68.9 0 0 621.00 432.63
  L 621.00 246.93
  A 0.93 0.93 90.0 0 0 620.07 246.00
  L 330.79 246.00
  A 3.16 3.13 25.4 0 0 328.82 246.69
  Q 319.51 254.08 311.22 262.15
  Q 309.88 263.45 311.16 264.80
  Q 356.42 312.91 402.93 360.42
  Q 410.02 367.66 416.84 374.78
  Z
  M 298.39 284.61
  Q 295.36 281.64 292.62 279.10
  A 1.12 1.11 48.1 0 0 291.20 279.02
  Q 274.71 291.38 259.13 304.11
  Q 241.17 318.79 222.65 333.87
  A 1.79 1.76 70.7 0 0 222.00 335.25
  L 222.00 602.72
  A 1.28 1.28 0.2 0 0 223.28 604.00
  L 430.25 604.00
  A 1.31 1.30 23.9 0 0 431.12 603.67
  Q 475.01 564.30 518.85 524.86
  Q 522.08 521.96 524.75 519.36
  A 1.21 1.20 45.8 0 0 524.77 517.65
  Q 441.68 432.31 359.42 346.34
  Q 329.41 314.98 298.39 284.61
  Z
  M 620.41 463.78
  Q 604.34 477.71 589.18 492.03
  Q 576.10 504.38 574.62 505.76
  Q 522.61 554.19 469.38 602.92
  Q 468.20 604.00 469.80 604.00
  L 620.31 604.00
  A 0.69 0.69 45.0 0 0 621.00 603.31
  L 621.00 464.05
  Q 621.00 463.27 620.41 463.78
  Z"
/>
<path fill="#f0fafd" d="
  M 353.30 39.77
  Q 350.89 43.16 346.19 45.94
  Q 343.12 47.75 329.88 56.94
  Q 323.11 61.64 313.90 68.40
  Q 299.47 79.01 284.85 89.37
  Q 253.83 111.35 223.42 134.17
  Q 214.85 140.60 207.27 145.96
  Q 166.33 174.87 140.50 192.75
  Q 140.28 192.90 140.13 192.75
  A 0.34 0.27 -42.4 0 1 140.20 192.32
  Q 174.13 161.52 182.69 154.19
  Q 233.76 110.44 288.85 71.86
  Q 305.14 60.45 321.19 48.68
  Q 323.07 47.30 324.53 45.91
  Q 339.11 43.74 353.30 39.77
  Z"
/>
<g fill="#febe01">
<path d="
  M 505.29 42.75
  Q 562.64 55.78 613.76 84.33
  Q 622.45 89.18 630.88 94.65
  Q 699.71 139.29 744.94 206.56
  Q 769.72 243.42 785.89 287.31
  Q 729.37 335.90 673.33 386.24
  Q 672.00 387.43 672.00 385.65
  L 672.00 194.34
  A 1.34 1.34 -0.2 0 0 670.66 193.00
  L 395.04 193.00
  Q 393.38 193.00 394.64 191.92
  Q 429.48 162.24 463.81 132.81
  Q 470.10 127.42 472.33 125.28
  A 1.09 0.97 -25.9 0 0 472.68 124.44
  Q 472.55 122.70 470.92 122.93
  Q 470.63 122.97 469.77 123.40
  Q 469.20 123.69 468.54 123.75
  Q 461.52 115.87 452.99 108.56
  A 2.14 2.12 58.5 0 0 451.13 108.10
  Q 436.58 111.47 423.83 117.85
  Q 423.28 118.13 422.86 117.86
  A 0.64 0.51 -58.2 0 1 422.76 117.06
  Q 425.21 112.99 427.69 108.94
  Q 428.17 108.15 427.96 107.50
  Q 448.96 89.15 470.76 71.75
  Q 484.26 60.98 504.69 43.94
  Q 505.31 43.42 505.29 42.75
  Z"
/>
<path d="
  M 402.93 360.42
  Q 356.42 312.91 311.16 264.80
  Q 309.88 263.45 311.22 262.15
  Q 319.51 254.08 328.82 246.69
  A 3.16 3.13 25.4 0 1 330.79 246.00
  L 620.07 246.00
  A 0.93 0.93 -89.7 0 1 621.00 246.93
  L 621.00 432.63
  A 1.92 1.91 68.9 0 1 620.37 434.05
  L 543.70 503.17
  A 0.86 0.85 46.2 0 1 542.52 503.14
  Q 478.79 439.43 416.84 374.78
  Q 410.02 367.66 402.93 360.42
  Z"
/>
</g>
</svg>
