<!DOCTYPE svg PUBLIC "-//W3C//DTD SVG 1.1//EN" "http://www.w3.org/Graphics/SVG/1.1/DTD/svg11.dtd">
<svg xmlns="http://www.w3.org/2000/svg" viewBox="0 0 1119 1119">
<path fill="#fbfbfc" stroke="#fbfbfc" d="M0 559.501v559.501l559.75-.251 559.75-.251.251-559.25.251-559.25H0v559.501m.496.499c0 307.725.115 433.613.254 279.75.139-153.862.139-405.637 0-559.5C.611 126.388.496 252.275.496 560m322.915-211.109c-1.698 1.036-4.061 3.12-5.25 4.631L316 356.27v198.915c0 219.211-.513 202.173 6.235 206.986l3.265 2.329 57.5.306c62.619.334 62.526.341 68.028-5.335l3.472-3.581.268-78.523c.156-45.795.642-78.385 1.165-78.194.493.18 14.579 21.027 31.301 46.327 78.707 119.079 73.373 111.295 78.496 114.544 7.822 4.96 8.723 5.027 64.151 4.732 58.263-.309 54.458.184 59.869-7.766l2.25-3.306V556.253c0-218.698.528-201.6-6.373-206.523l-3.127-2.23-59.568-.273-59.569-.272-3.34 2.272c-8.172 5.562-7.461-2.647-8.023 92.566l-.5 84.646-28.953-47.469a114253.923 114253.923 0 0 1-51.77-84.97c-23.805-39.125-26.527-42.705-34.551-45.439-7.655-2.608-108.48-2.314-112.815.33m456.748 281.104c-4.448 1.051-9.958 6.545-11.203 11.169-.633 2.351-.904 24.101-.731 58.713.306 61.215-.166 57.092 7.16 62.561 4.333 3.235 116.897 3.235 121.23 0 7.312-5.459 6.849-1.52 7.207-61.26.22-36.676-.029-55.29-.786-58.766-1.344-6.178-5.998-11.151-11.664-12.466-4.739-1.099-106.546-1.055-111.213.049" fill-rule="evenodd"/>
<path fill="#f9f9f9" stroke="#f9f9f9" d="M0 559.501v559.501l559.75-.251 559.75-.251.251-559.25.251-559.25H0v559.501m.496.499c0 307.725.115 433.613.254 279.75.139-153.862.139-405.637 0-559.5C.611 126.388.496 252.275.496 560m323.905-212.117c-2.254 1.036-5.179 3.399-6.5 5.25L315.5 356.5l-.25 198.5c-.283 223.775-1.08 201.214 7.337 207.634l3.757 2.866H443.5l3.853-2.395c8.193-5.093 7.639 1.182 7.643-86.569.003-67.34.197-77.765 1.423-76.5.78.805 24.002 35.664 51.604 77.464 53.047 80.335 53.653 81.176 61.477 85.339l5 2.661h106l3.853-2.395c8.448-5.252 7.639 16.713 7.643-207.627L692 356.456l-3.175-3.852c-5.61-6.805-3.578-6.604-66.581-6.604h-56.82l-4.404 2.25c-9.256 4.73-8.453-3.511-9.02 92.573l-.5 84.677-2.594-4c-1.427-2.2-13.856-22.45-27.62-45-13.765-22.55-31.9-52.25-40.301-66-8.401-13.75-19.26-31.591-24.131-39.648-8.949-14.8-13.272-19.767-19.781-22.727-5.932-2.698-106.857-2.914-112.672-.242M776.962 631.25c-3.26 1.644-5.068 3.452-6.712 6.712l-2.25 4.462v54.972c0 61.913-.19 60.286 7.661 65.604l3.69 2.5 52.074.313c62.289.375 61.356.449 67.48-5.337l4.595-4.342V639.5l-2.401-3.367c-5.129-7.191-4.169-7.086-65.137-7.111L781.424 629l-4.462 2.25" fill-rule="evenodd"/>
<path fill="#ebeaf0" stroke="#ebeaf0" d="M0 559.501v559.501l559.75-.251 559.75-.251.251-559.25.251-559.25H0v559.501m.496.499c0 307.725.115 433.613.254 279.75.139-153.862.139-405.637 0-559.5C.611 126.388.496 252.275.496 560m324.505-212.877c-1.375.549-3.555 1.983-4.846 3.187-5.493 5.129-5.155-8.381-5.155 205.992v198.402l2.253 3.344c5.259 7.804 2.035 7.452 68.325 7.452h59.078l3.692-2.817c7.695-5.868 7.094.833 7.652-85.367l.5-77.273 50.978 77.06c28.037 42.382 52.531 78.659 54.43 80.614 7.774 8.005 5.888 7.783 66.17 7.783h53.578l3.692-2.817c7.892-6.019 7.121 15.347 7.412-205.472.295-224.251 1.103-203.277-8.037-208.633l-4.478-2.625-59.05.274c-66.265.306-61.494-.247-66.945 7.763l-2.25 3.306v84.052c0 50.696-.362 83.675-.913 83.102-.502-.522-19.012-30.65-41.134-66.95-70.301-115.356-63.123-104.429-71.29-108.51l-5.982-2.99-52.591.063c-32.448.039-53.547.445-55.089 1.06M777.45 630.407c-4.02 1.751-8.226 6.858-8.955 10.872-.321 1.772-.451 28.276-.289 58.898.334 63.166-.252 58.94 8.814 63.573l4.404 2.25h109.152l4.454-2.25c5.595-2.826 8.66-7.376 9.468-14.05 1.508-12.463.087-108.046-1.653-111.2-2.144-3.887-5.629-7.096-9.16-8.433-4.478-1.697-112.283-1.382-116.235.34" fill-rule="evenodd"/>
<path fill="#4b3b6b" stroke="#4b3b6b" d="M0 559.501v559.501l559.75-.251 559.75-.251.251-559.25.251-559.25H0v559.501m.496.499c0 307.725.115 433.613.254 279.75.139-153.862.139-405.637 0-559.5C.611 126.388.496 252.275.496 560m322.653-212.304c-1.843.908-4.543 3.453-6 5.655l-2.649 4.003-.291 195.073c-.161 107.29-.018 197.004.317 199.365.714 5.031 5.293 10.817 10.176 12.857 2.589 1.082 14.734 1.351 60.928 1.351h57.694l4.333-2.539c8.329-4.881 7.78.777 8.343-85.938l.5-76.977 50.864 76.977c54.265 82.124 54.36 82.255 62.306 86.014l5.206 2.463h105.448l4.34-2.543c9.239-5.415 8.386 16.608 8.093-208.858l-.257-198.452-2.092-2.824c-1.151-1.553-3.58-3.835-5.398-5.073l-3.306-2.25h-58.951c-66.181 0-63.553-.281-68.592 7.333l-2.661 4.02-.5 82.993-.5 82.993-9.099-14.92c-5.005-8.205-24.757-40.569-43.893-71.919-19.136-31.35-38.114-62.482-42.175-69.182-13.677-22.569-9.092-21.274-75.333-21.273-47.709 0-53.863.179-56.851 1.651M777.5 629.952c-2.523 1.072-6 4.355-8.256 7.798-1.592 2.428-1.771 7.238-2.057 55.205-.36 60.35-.274 61.738 4.126 66.749C776.984 766.162 775.315 766 836 766c59.827 0 58.845.086 64.186-5.627 4.792-5.125 4.814-5.408 4.814-63.122 0-61.102.149-59.763-7.247-65.311l-3.253-2.44-57.5-.199c-31.625-.109-58.4.183-59.5.651" fill-rule="evenodd"/>
</svg>